<?xml version="1.0" encoding="UTF-8"?>
<!DOCTYPE svg PUBLIC "-//W3C//DTD SVG 1.1//EN" "http://www.w3.org/Graphics/SVG/1.1/DTD/svg11.dtd">
<svg xmlns="http://www.w3.org/2000/svg" version="1.1" width="635px" height="635px" style="shape-rendering:geometricPrecision; text-rendering:geometricPrecision; image-rendering:optimizeQuality; fill-rule:evenodd; clip-rule:evenodd" xmlns:xlink="http://www.w3.org/1999/xlink">
<g><path style="opacity:0.935" fill="#3b66f1" d="M 318.5,8.5 C 318.987,9.47344 319.487,10.4734 320,11.5C 323.666,14.006 327.166,16.6727 330.5,19.5C 331.857,21.1856 333.19,22.8523 334.5,24.5C 306.975,22.9953 279.641,24.9953 252.5,30.5C 252.5,31.5 252.5,32.5 252.5,33.5C 247.053,28.3013 241.387,23.3013 235.5,18.5C 262.506,10.8331 290.173,7.4998 318.5,8.5 Z"/></g>
<g><path style="opacity:0.958" fill="#3868f3" d="M 318.5,8.5 C 320.5,8.5 322.5,8.5 324.5,8.5C 331.167,14.1667 337.833,19.8333 344.5,25.5C 341.098,25.6576 337.764,25.3242 334.5,24.5C 333.19,22.8523 331.857,21.1856 330.5,19.5C 327.166,16.6727 323.666,14.006 320,11.5C 319.487,10.4734 318.987,9.47344 318.5,8.5 Z"/></g>
<g><path style="opacity:0.957" fill="#3669f4" d="M 324.5,8.5 C 343.431,8.86635 362.097,11.1997 380.5,15.5C 390.353,23.5969 400.02,31.9302 409.5,40.5C 402.19,38.1748 394.857,35.8414 387.5,33.5C 386.502,42.4754 386.168,51.4754 386.5,60.5C 381.167,56.1667 375.833,51.8333 370.5,47.5C 370.5,41.5 370.5,35.5 370.5,29.5C 361.822,28.1645 353.155,26.8312 344.5,25.5C 337.833,19.8333 331.167,14.1667 324.5,8.5 Z"/></g>
<g><path style="opacity:0.93" fill="#336bf5" d="M 380.5,15.5 C 467.978,36.844 534.478,86.1773 580,163.5C 585.392,173.614 590.225,183.948 594.5,194.5C 584.46,186.156 574.46,177.823 564.5,169.5C 558.087,158.345 550.92,147.678 543,137.5C 540.297,140.371 537.464,143.038 534.5,145.5C 530.485,141.487 526.152,137.821 521.5,134.5C 524.811,130.853 528.145,127.187 531.5,123.5C 523.514,115.014 515.348,106.681 507,98.5C 502.964,102.704 498.798,106.704 494.5,110.5C 489.848,107.179 485.515,103.513 481.5,99.5C 485.296,95.2022 489.296,91.0356 493.5,87C 476.846,74.3338 459.18,63.1671 440.5,53.5C 439.511,57.1073 439.177,60.774 439.5,64.5C 434.137,60.491 428.804,56.491 423.5,52.5C 423.808,50.076 423.474,47.7427 422.5,45.5C 418.216,43.629 413.883,41.9623 409.5,40.5C 400.02,31.9302 390.353,23.5969 380.5,15.5 Z"/></g>
<g><path style="opacity:0.974" fill="#3e63f0" d="M 235.5,18.5 C 241.387,23.3013 247.053,28.3013 252.5,33.5C 252.5,35.1667 252.5,36.8333 252.5,38.5C 244.536,32.5374 236.87,26.2041 229.5,19.5C 231.435,18.8505 233.435,18.5172 235.5,18.5 Z"/></g>
<g><path style="opacity:0.952" fill="#4061ee" d="M 229.5,19.5 C 236.87,26.2041 244.536,32.5374 252.5,38.5C 252.335,41.5184 252.502,44.5184 253,47.5C 272.685,65.3522 292.518,83.0189 312.5,100.5C 314.519,98.8103 316.519,97.1436 318.5,95.5C 323.167,98.8333 327.833,102.167 332.5,105.5C 328.503,110.33 324.003,114.664 319,118.5C 318.5,127.494 318.334,136.494 318.5,145.5C 313.5,141.5 308.5,137.5 303.5,133.5C 303.829,127.463 303.496,121.463 302.5,115.5C 285.85,100.685 269.35,85.6846 253,70.5C 252.5,76.8246 252.334,83.1579 252.5,89.5C 247.205,85.5116 241.872,81.5116 236.5,77.5C 236.833,63.1512 236.499,48.8179 235.5,34.5C 223.809,38.5078 212.143,42.5078 200.5,46.5C 195.848,43.1793 191.515,39.5126 187.5,35.5C 200.894,28.8094 214.894,23.476 229.5,19.5 Z"/></g>
<g><path style="opacity:0.969" fill="#435fed" d="M 187.5,35.5 C 191.515,39.5126 195.848,43.1793 200.5,46.5C 199.538,53.4122 199.205,60.4122 199.5,67.5C 189.847,59.8451 180.514,51.8451 171.5,43.5C 176.456,40.2791 181.789,37.6124 187.5,35.5 Z"/></g>
<g><path style="opacity:0.935" fill="#455eec" d="M 171.5,43.5 C 180.514,51.8451 189.847,59.8451 199.5,67.5C 199.5,73.5 199.5,79.5 199.5,85.5C 193.833,80.8333 188.167,76.1667 182.5,71.5C 182.674,66.0356 182.674,60.7023 182.5,55.5C 178.711,57.9633 174.711,59.9633 170.5,61.5C 166.5,57.8333 162.5,54.1667 158.5,50.5C 162.347,47.4074 166.68,45.0741 171.5,43.5 Z"/></g>
<g><path style="opacity:0.981" fill="#3868f3" d="M 370.5,47.5 C 375.833,51.8333 381.167,56.1667 386.5,60.5C 386.5,62.1667 386.5,63.8333 386.5,65.5C 385.448,65.6495 384.448,65.4828 383.5,65C 377.988,60.3194 372.655,55.4861 367.5,50.5C 368.167,49.1667 369.167,48.1667 370.5,47.5 Z"/></g>
<g><path style="opacity:0.893" fill="#485ae9" d="M 158.5,50.5 C 162.5,54.1667 166.5,57.8333 170.5,61.5C 157.631,69.3633 145.298,78.03 133.5,87.5C 146.188,100.521 158.855,113.521 171.5,126.5C 152.576,111.913 134.243,96.5795 116.5,80.5C 129.103,68.5671 143.103,58.5671 158.5,50.5 Z"/></g>
<g><path style="opacity:0.966" fill="#3b66f1" d="M 367.5,50.5 C 372.655,55.4861 377.988,60.3194 383.5,65C 384.448,65.4828 385.448,65.6495 386.5,65.5C 386.833,89.8425 386.5,114.176 385.5,138.5C 384.148,139.524 382.815,140.524 381.5,141.5C 379.901,139.396 378.068,137.396 376,135.5C 375.667,135.833 375.333,136.167 375,136.5C 373.312,133.278 371.145,131.278 368.5,130.5C 369.808,120.728 370.475,110.728 370.5,100.5C 370.333,90.8333 370.167,81.1667 370,71.5C 358.374,81.7237 346.874,92.057 335.5,102.5C 332.565,100.696 329.732,98.0296 327,94.5C 326.667,94.8333 326.333,95.1667 326,95.5C 324.905,94.3066 324.072,92.9733 323.5,91.5C 337.538,77.1273 352.205,63.4606 367.5,50.5 Z"/></g>
<g><path style="opacity:0.936" fill="#3669f4" d="M 423.5,52.5 C 428.804,56.491 434.137,60.491 439.5,64.5C 439.5,77.8333 439.5,91.1667 439.5,104.5C 433.983,99.9154 428.317,95.582 422.5,91.5C 422.289,78.4776 422.622,65.4776 423.5,52.5 Z"/></g>
<g><path style="opacity:0.935" fill="#485bea" d="M 182.5,71.5 C 188.167,76.1667 193.833,80.8333 199.5,85.5C 199.71,106.847 199.376,128.18 198.5,149.5C 193.431,145.091 188.098,141.091 182.5,137.5C 182.5,115.5 182.5,93.5 182.5,71.5 Z"/></g>
<g><path style="opacity:1" fill="#435fed" d="M 236.5,77.5 C 241.872,81.5116 247.205,85.5116 252.5,89.5C 252.5,96.8333 252.5,104.167 252.5,111.5C 247.167,107.167 241.833,102.833 236.5,98.5C 236.5,91.5 236.5,84.5 236.5,77.5 Z"/></g>
<g><path style="opacity:0.94" fill="#4b58e8" d="M 116.5,80.5 C 134.243,96.5795 152.576,111.913 171.5,126.5C 175.527,129.86 179.194,133.527 182.5,137.5C 188.098,141.091 193.431,145.091 198.5,149.5C 198.34,151.199 198.506,152.866 199,154.5C 218.399,173.397 237.232,192.731 255.5,212.5C 214.017,177.928 172.351,143.595 130.5,109.5C 126.833,106.167 123.167,102.833 119.5,99.5C 115.5,95.8333 111.5,92.1667 107.5,88.5C 109.88,85.1195 112.88,82.4528 116.5,80.5 Z"/></g>
<g><path style="opacity:0.92" fill="#4c56e8" d="M 107.5,88.5 C 111.5,92.1667 115.5,95.8333 119.5,99.5C 118.833,99.8333 118.167,100.167 117.5,100.5C 113.208,97.5434 109.208,94.2101 105.5,90.5C 105.833,89.5 106.5,88.8333 107.5,88.5 Z"/></g>
<g><path style="opacity:0.926" fill="#4f52e4" d="M 105.5,90.5 C 109.208,94.2101 113.208,97.5434 117.5,100.5C 110.536,107.965 103.369,115.298 96,122.5C 95.3333,123.5 95.3333,124.5 96,125.5C 149.674,178.007 202.84,231.007 255.5,284.5C 251.945,281.974 248.278,279.474 244.5,277C 213.127,250.323 181.793,223.657 150.5,197C 140.939,189.261 131.272,181.761 121.5,174.5C 108.732,163.235 96.3989,151.401 84.5,139C 83.212,138.761 82.212,139.261 81.5,140.5C 77.962,136.386 73.962,132.719 69.5,129.5C 76.4548,120.707 83.6215,112.04 91,103.5C 95.4262,98.5663 100.26,94.233 105.5,90.5 Z"/></g>
<g><path style="opacity:0.931" fill="#3f63f0" d="M 323.5,91.5 C 324.072,92.9733 324.905,94.3066 326,95.5C 326.333,95.1667 326.667,94.8333 327,94.5C 329.732,98.0296 332.565,100.696 335.5,102.5C 334.833,103.833 333.833,104.833 332.5,105.5C 327.833,102.167 323.167,98.8333 318.5,95.5C 319.945,93.9373 321.611,92.604 323.5,91.5 Z"/></g>
<g><path style="opacity:0.929" fill="#3868f3" d="M 422.5,91.5 C 428.317,95.582 433.983,99.9154 439.5,104.5C 439.5,106.833 439.5,109.167 439.5,111.5C 433.613,106.699 427.947,101.699 422.5,96.5C 422.5,94.8333 422.5,93.1667 422.5,91.5 Z"/></g>
<g><path style="opacity:0.936" fill="#3b66f1" d="M 422.5,96.5 C 427.947,101.699 433.613,106.699 439.5,111.5C 439.334,121.506 439.5,131.506 440,141.5C 444.67,135.663 449.837,130.33 455.5,125.5C 459.459,127.604 463.125,130.104 466.5,133C 467.305,134.113 467.972,135.279 468.5,136.5C 455.531,151.136 441.865,165.136 427.5,178.5C 424.358,177.323 421.524,174.99 419,171.5C 418.667,171.833 418.333,172.167 418,172.5C 417.003,170.677 415.836,169.01 414.5,167.5C 416.795,164.703 419.295,162.036 422,159.5C 422.5,138.503 422.667,117.503 422.5,96.5 Z"/></g>
<g><path style="opacity:1" fill="#455eec" d="M 236.5,98.5 C 241.833,102.833 247.167,107.167 252.5,111.5C 252.5,117.5 252.5,123.5 252.5,129.5C 247.431,125.091 242.098,121.091 236.5,117.5C 236.5,111.167 236.5,104.833 236.5,98.5 Z"/></g>
<g><path style="opacity:0.909" fill="#3669f4" d="M 481.5,99.5 C 485.515,103.513 489.848,107.179 494.5,110.5C 487.5,118.167 480.167,125.5 472.5,132.5C 467.848,129.179 463.515,125.513 459.5,121.5C 466.5,113.833 473.833,106.5 481.5,99.5 Z"/></g>
<g><path style="opacity:0.926" fill="#4b57e7" d="M 130.5,109.5 C 172.351,143.595 214.017,177.928 255.5,212.5C 261.833,218.167 267.833,224.167 273.5,230.5C 232.017,195.928 190.351,161.595 148.5,127.5C 142.167,121.833 136.167,115.833 130.5,109.5 Z"/></g>
<g><path style="opacity:0.944" fill="#465ceb" d="M 236.5,117.5 C 242.098,121.091 247.431,125.091 252.5,129.5C 269.5,144.167 286.5,158.833 303.5,173.5C 310.814,178.818 317.814,184.484 324.5,190.5C 320.412,195.838 315.412,199.672 309.5,202C 285.63,180.461 261.463,159.294 237,138.5C 236.5,131.508 236.334,124.508 236.5,117.5 Z"/></g>
<g><path style="opacity:0.902" fill="#3868f3" d="M 459.5,121.5 C 463.515,125.513 467.848,129.179 472.5,132.5C 471.5,134.167 470.167,135.5 468.5,136.5C 467.972,135.279 467.305,134.113 466.5,133C 463.125,130.104 459.459,127.604 455.5,125.5C 456.5,123.833 457.833,122.5 459.5,121.5 Z"/></g>
<g><path style="opacity:0.924" fill="#4c56e6" d="M 148.5,127.5 C 190.351,161.595 232.017,195.928 273.5,230.5C 286.438,243.938 299.604,257.272 313,270.5C 314.039,269.29 315.206,268.29 316.5,267.5C 321.152,270.821 325.485,274.487 329.5,278.5C 324.703,283.798 319.703,288.965 314.5,294C 313.5,294.667 312.5,294.667 311.5,294C 256.602,238.936 202.268,183.436 148.5,127.5 Z"/></g>
<g><path style="opacity:0.923" fill="#5050e3" d="M 69.5,129.5 C 73.962,132.719 77.962,136.386 81.5,140.5C 79.1667,143.833 76.8333,147.167 74.5,150.5C 70.0164,147.418 65.683,144.084 61.5,140.5C 64.1667,136.833 66.8333,133.167 69.5,129.5 Z"/></g>
<g><path style="opacity:0.924" fill="#3f63f0" d="M 368.5,130.5 C 371.145,131.278 373.312,133.278 375,136.5C 375.333,136.167 375.667,135.833 376,135.5C 378.068,137.396 379.901,139.396 381.5,141.5C 380.833,142.833 379.833,143.833 378.5,144.5C 373.848,141.179 369.515,137.513 365.5,133.5C 366.167,132.167 367.167,131.167 368.5,130.5 Z"/></g>
<g><path style="opacity:1" fill="#435fed" d="M 303.5,133.5 C 308.5,137.5 313.5,141.5 318.5,145.5C 318.5,152.5 318.5,159.5 318.5,166.5C 313.648,162.58 308.648,158.913 303.5,155.5C 303.5,148.167 303.5,140.833 303.5,133.5 Z"/></g>
<g><path style="opacity:0.923" fill="#4061ee" d="M 365.5,133.5 C 369.515,137.513 373.848,141.179 378.5,144.5C 368.821,153.511 358.821,162.178 348.5,170.5C 343.848,167.179 339.515,163.513 335.5,159.5C 345.179,150.489 355.179,141.822 365.5,133.5 Z"/></g>
<g><path style="opacity:0.919" fill="#3669f4" d="M 521.5,134.5 C 526.152,137.821 530.485,141.487 534.5,145.5C 527.799,153.202 520.466,160.202 512.5,166.5C 508.5,162.833 504.5,159.167 500.5,155.5C 507.167,148.167 514.167,141.167 521.5,134.5 Z"/></g>
<g><path style="opacity:0.936" fill="#534ce1" d="M 61.5,140.5 C 65.683,144.084 70.0164,147.418 74.5,150.5C 70.386,156.553 66.386,162.72 62.5,169C 92.6945,199.528 123.194,229.695 154,259.5C 154.497,261.81 154.663,264.143 154.5,266.5C 117.167,235.5 79.8333,204.5 42.5,173.5C 47.607,161.743 53.9403,150.743 61.5,140.5 Z"/></g>
<g><path style="opacity:0.971" fill="#455eec" d="M 303.5,155.5 C 308.648,158.913 313.648,162.58 318.5,166.5C 318.337,168.857 318.503,171.19 319,173.5C 320.039,172.29 321.206,171.29 322.5,170.5C 327.059,173.939 331.392,177.606 335.5,181.5C 332.129,184.871 328.463,187.871 324.5,190.5C 317.814,184.484 310.814,178.818 303.5,173.5C 303.5,167.5 303.5,161.5 303.5,155.5 Z"/></g>
<g><path style="opacity:0.95" fill="#3868f3" d="M 500.5,155.5 C 504.5,159.167 508.5,162.833 512.5,166.5C 511.833,167.833 510.833,168.833 509.5,169.5C 506.402,167.473 503.402,165.307 500.5,163C 499.117,161.729 498.117,160.229 497.5,158.5C 498.167,157.167 499.167,156.167 500.5,155.5 Z"/></g>
<g><path style="opacity:0.936" fill="#3b66f1" d="M 497.5,158.5 C 498.117,160.229 499.117,161.729 500.5,163C 503.402,165.307 506.402,167.473 509.5,169.5C 495.5,184.167 481.167,198.5 466.5,212.5C 462.376,208.587 458.043,204.921 453.5,201.5C 468.14,187.194 482.807,172.861 497.5,158.5 Z"/></g>
<g><path style="opacity:0.925" fill="#435fed" d="M 335.5,159.5 C 339.515,163.513 343.848,167.179 348.5,170.5C 344.485,174.513 340.152,178.179 335.5,181.5C 331.392,177.606 327.059,173.939 322.5,170.5C 326.515,166.487 330.848,162.821 335.5,159.5 Z"/></g>
<g><path style="opacity:0.9" fill="#3e64f0" d="M 414.5,167.5 C 415.836,169.01 417.003,170.677 418,172.5C 418.333,172.167 418.667,171.833 419,171.5C 421.524,174.99 424.358,177.323 427.5,178.5C 426.5,180.167 425.167,181.5 423.5,182.5C 418.941,179.061 414.608,175.394 410.5,171.5C 411.5,169.833 412.833,168.5 414.5,167.5 Z"/></g>
<g><path style="opacity:0.927" fill="#3669f4" d="M 564.5,169.5 C 574.46,177.823 584.46,186.156 594.5,194.5C 602.549,211.653 608.216,229.653 611.5,248.5C 604.545,243.547 597.878,238.213 591.5,232.5C 586.458,216.411 580.291,200.745 573,185.5C 567.298,191.37 561.465,197.036 555.5,202.5C 551.485,198.487 547.152,194.821 542.5,191.5C 549.5,183.833 556.833,176.5 564.5,169.5 Z"/></g>
<g><path style="opacity:0.91" fill="#4061ee" d="M 410.5,171.5 C 414.608,175.394 418.941,179.061 423.5,182.5C 414.472,191.86 405.472,201.193 396.5,210.5C 391.541,207.208 386.874,203.541 382.5,199.5C 391.5,189.833 400.833,180.5 410.5,171.5 Z"/></g>
<g><path style="opacity:0.935" fill="#544be0" d="M 42.5,173.5 C 79.8333,204.5 117.167,235.5 154.5,266.5C 155.08,270.649 154.414,274.316 152.5,277.5C 143.422,268.752 133.755,260.752 123.5,253.5C 100.506,230.673 77.3398,208.007 54,185.5C 53.059,187.727 51.8923,189.727 50.5,191.5C 46.5,188.167 42.5,184.833 38.5,181.5C 38.8961,178.279 40.2295,175.612 42.5,173.5 Z"/></g>
<g><path style="opacity:0.941" fill="#5050e3" d="M 121.5,174.5 C 131.272,181.761 140.939,189.261 150.5,197C 181.793,223.657 213.127,250.323 244.5,277C 248.278,279.474 251.945,281.974 255.5,284.5C 267.768,295.265 279.601,306.598 291,318.5C 291.499,323.155 291.666,327.821 291.5,332.5C 272.776,316.112 253.443,300.446 233.5,285.5C 195.528,249.195 158.195,212.195 121.5,174.5 Z"/></g>
<g><path style="opacity:0.924" fill="#5648de" d="M 38.5,181.5 C 42.5,184.833 46.5,188.167 50.5,191.5C 46.502,201.826 42.502,212.16 38.5,222.5C 34.317,218.916 29.9836,215.582 25.5,212.5C 28.4875,201.534 32.8208,191.201 38.5,181.5 Z"/></g>
<g><path style="opacity:0.916" fill="#3868f3" d="M 542.5,191.5 C 547.152,194.821 551.485,198.487 555.5,202.5C 554.833,203.833 553.833,204.833 552.5,205.5C 548.272,201.659 543.939,197.992 539.5,194.5C 540.167,193.167 541.167,192.167 542.5,191.5 Z"/></g>
<g><path style="opacity:0.935" fill="#3b66f1" d="M 539.5,194.5 C 543.939,197.992 548.272,201.659 552.5,205.5C 538.193,219.473 523.86,233.473 509.5,247.5C 508.206,246.71 507.039,245.71 506,244.5C 505.667,244.833 505.333,245.167 505,245.5C 502.294,241.645 499.461,238.645 496.5,236.5C 510.807,222.527 525.14,208.527 539.5,194.5 Z"/></g>
<g><path style="opacity:0.909" fill="#435fed" d="M 382.5,199.5 C 386.874,203.541 391.541,207.208 396.5,210.5C 392.833,214.833 388.833,218.833 384.5,222.5C 379.981,219.071 375.648,215.404 371.5,211.5C 375.195,207.474 378.862,203.474 382.5,199.5 Z"/></g>
<g><path style="opacity:0.914" fill="#3e64f0" d="M 453.5,201.5 C 458.043,204.921 462.376,208.587 466.5,212.5C 465.833,213.833 464.833,214.833 463.5,215.5C 458.848,212.179 454.515,208.513 450.5,204.5C 451.167,203.167 452.167,202.167 453.5,201.5 Z"/></g>
<g><path style="opacity:0.906" fill="#4061ee" d="M 450.5,204.5 C 454.515,208.513 458.848,212.179 463.5,215.5C 454.5,225.167 445.167,234.5 435.5,243.5C 430.941,240.061 426.608,236.394 422.5,232.5C 431.5,222.833 440.833,213.5 450.5,204.5 Z"/></g>
<g><path style="opacity:0.911" fill="#455eec" d="M 371.5,211.5 C 375.648,215.404 379.981,219.071 384.5,222.5C 381.5,226.167 378.167,229.5 374.5,232.5C 370.392,228.606 366.059,224.939 361.5,221.5C 364.5,217.833 367.833,214.5 371.5,211.5 Z"/></g>
<g><path style="opacity:0.926" fill="#5845dd" d="M 25.5,212.5 C 29.9836,215.582 34.317,218.916 38.5,222.5C 37.2036,228.05 35.537,233.383 33.5,238.5C 29.3923,234.606 25.059,230.939 20.5,227.5C 21.5946,222.216 23.2613,217.216 25.5,212.5 Z"/></g>
<g><path style="opacity:0.922" fill="#485bea" d="M 361.5,221.5 C 366.059,224.939 370.392,228.606 374.5,232.5C 363.167,244.5 351.5,256.167 339.5,267.5C 335.167,264.167 330.833,260.833 326.5,257.5C 337.468,244.865 349.135,232.865 361.5,221.5 Z"/></g>
<g><path style="opacity:0.974" fill="#5942db" d="M 20.5,227.5 C 25.059,230.939 29.3923,234.606 33.5,238.5C 32.0646,246.073 30.3979,253.573 28.5,261C 39.495,261.5 50.495,261.667 61.5,261.5C 67.7974,266.462 73.7974,271.795 79.5,277.5C 62.1667,277.5 44.8333,277.5 27.5,277.5C 22.5,272.833 17.5,268.167 12.5,263.5C 14.0215,251.223 16.6882,239.223 20.5,227.5 Z"/></g>
<g><path style="opacity:0.906" fill="#435fed" d="M 422.5,232.5 C 426.608,236.394 430.941,240.061 435.5,243.5C 431.833,247.833 427.833,251.833 423.5,255.5C 419.485,251.487 415.152,247.821 410.5,244.5C 414.167,240.167 418.167,236.167 422.5,232.5 Z"/></g>
<g><path style="opacity:0.931" fill="#3868f3" d="M 591.5,232.5 C 597.878,238.213 604.545,243.547 611.5,248.5C 612.768,250.905 613.435,253.572 613.5,256.5C 610.933,254.546 608.266,252.713 605.5,251C 604.257,249.846 603.257,248.512 602.5,247C 599.318,245.288 596.318,243.455 593.5,241.5C 592.99,238.461 592.323,235.461 591.5,232.5 Z"/></g>
<g><path style="opacity:0.904" fill="#3e63f0" d="M 496.5,236.5 C 499.461,238.645 502.294,241.645 505,245.5C 505.333,245.167 505.667,244.833 506,244.5C 507.039,245.71 508.206,246.71 509.5,247.5C 508.5,249.167 507.167,250.5 505.5,251.5C 501.392,247.606 497.059,243.939 492.5,240.5C 493.5,238.833 494.833,237.5 496.5,236.5 Z"/></g>
<g><path style="opacity:0.973" fill="#4062ee" d="M 492.5,240.5 C 497.059,243.939 501.392,247.606 505.5,251.5C 502.371,255.131 499.037,258.631 495.5,262C 503.493,262.5 511.493,262.666 519.5,262.5C 525.5,267.833 531.5,273.167 537.5,278.5C 516.833,278.5 496.167,278.5 475.5,278.5C 475.043,276.227 473.71,274.894 471.5,274.5C 471.334,269.821 471.501,265.155 472,260.5C 478.702,253.631 485.535,246.964 492.5,240.5 Z"/></g>
<g><path style="opacity:0.974" fill="#3c65f1" d="M 593.5,241.5 C 596.318,243.455 599.318,245.288 602.5,247C 603.257,248.512 604.257,249.846 605.5,251C 608.266,252.713 610.933,254.546 613.5,256.5C 618.402,283.782 619.735,311.116 617.5,338.5C 617.19,337.262 616.69,337.262 616,338.5C 614.374,335.872 612.374,333.539 610,331.5C 609.667,331.833 609.333,332.167 609,332.5C 607.588,329.184 605.422,327.518 602.5,327.5C 602.715,325.821 602.048,324.821 600.5,324.5C 597.565,322.696 594.732,320.03 592,316.5C 591.667,316.833 591.333,317.167 591,317.5C 589.71,315.208 588.043,313.208 586,311.5C 585.667,311.833 585.333,312.167 585,312.5C 583.905,311.307 583.072,309.973 582.5,308.5C 589.167,308.5 595.833,308.5 602.5,308.5C 602.755,298.747 602.088,289.08 600.5,279.5C 582.179,278.5 563.845,278.167 545.5,278.5C 542.009,276.558 538.843,273.558 536,269.5C 535.667,269.833 535.333,270.167 535,270.5C 533.71,268.208 532.043,266.208 530,264.5C 528.692,265.151 527.859,264.485 527.5,262.5C 551.176,262.833 574.843,262.5 598.5,261.5C 597.083,254.743 595.417,248.077 593.5,241.5 Z"/></g>
<g><path style="opacity:0.944" fill="#455eec" d="M 410.5,244.5 C 415.152,247.821 419.485,251.487 423.5,255.5C 420.167,258.5 416.833,261.5 413.5,264.5C 409.167,261.167 404.833,257.833 400.5,254.5C 403.5,250.833 406.833,247.5 410.5,244.5 Z"/></g>
<g><path style="opacity:0.989" fill="#5648de" d="M 123.5,253.5 C 133.755,260.752 143.422,268.752 152.5,277.5C 136.167,277.5 119.833,277.5 103.5,277.5C 97.5,272.167 91.5,266.833 85.5,261.5C 100.504,261.667 115.504,261.5 130.5,261C 127.961,258.63 125.628,256.13 123.5,253.5 Z"/></g>
<g><path style="opacity:0.943" fill="#485bea" d="M 400.5,254.5 C 404.833,257.833 409.167,261.167 413.5,264.5C 401.833,276.833 389.833,288.833 377.5,300.5C 373.485,296.487 369.152,292.821 364.5,289.5C 376.473,277.861 388.473,266.194 400.5,254.5 Z"/></g>
<g><path style="opacity:0.913" fill="#4b58e8" d="M 326.5,257.5 C 330.833,260.833 335.167,264.167 339.5,267.5C 337.57,271.1 334.903,274.1 331.5,276.5C 326.848,273.179 322.515,269.513 318.5,265.5C 320.833,262.5 323.5,259.833 326.5,257.5 Z"/></g>
<g><path style="opacity:1" fill="#5845dd" d="M 61.5,261.5 C 69.5,261.5 77.5,261.5 85.5,261.5C 91.5,266.833 97.5,272.167 103.5,277.5C 95.5,277.5 87.5,277.5 79.5,277.5C 73.7974,271.795 67.7974,266.462 61.5,261.5 Z"/></g>
<g><path style="opacity:1" fill="#3e63f0" d="M 519.5,262.5 C 522.167,262.5 524.833,262.5 527.5,262.5C 527.859,264.485 528.692,265.151 530,264.5C 532.043,266.208 533.71,268.208 535,270.5C 535.333,270.167 535.667,269.833 536,269.5C 538.843,273.558 542.009,276.558 545.5,278.5C 542.833,278.5 540.167,278.5 537.5,278.5C 531.5,273.167 525.5,267.833 519.5,262.5 Z"/></g>
<g><path style="opacity:0.93" fill="#5b3fda" d="M 12.5,263.5 C 17.5,268.167 22.5,272.833 27.5,277.5C 25.7501,281.183 25.0834,285.183 25.5,289.5C 20.5,285.5 15.5,281.5 10.5,277.5C 10.5319,272.609 11.1985,267.943 12.5,263.5 Z"/></g>
<g><path style="opacity:0.899" fill="#4c56e8" d="M 318.5,265.5 C 322.515,269.513 326.848,273.179 331.5,276.5C 331.167,277.5 330.5,278.167 329.5,278.5C 325.485,274.487 321.152,270.821 316.5,267.5C 316.833,266.5 317.5,265.833 318.5,265.5 Z"/></g>
<g><path style="opacity:1" fill="#435fed" d="M 471.5,274.5 C 473.71,274.894 475.043,276.227 475.5,278.5C 474.167,278.5 472.833,278.5 471.5,278.5C 471.5,277.167 471.5,275.833 471.5,274.5 Z"/></g>
<g><path style="opacity:0.976" fill="#5c3cd8" d="M 10.5,277.5 C 15.5,281.5 20.5,285.5 25.5,289.5C 24.5447,295.409 24.2114,301.409 24.5,307.5C 32.1667,307.5 39.8333,307.5 47.5,307.5C 53.5,312.833 59.5,318.167 65.5,323.5C 51.8333,323.5 38.1667,323.5 24.5,323.5C 24.5,324.833 24.5,326.167 24.5,327.5C 19.1667,323.5 13.8333,319.5 8.5,315.5C 8.10826,302.719 8.77492,290.052 10.5,277.5 Z"/></g>
<g><path style="opacity:0.959" fill="#524ee2" d="M 233.5,285.5 C 253.443,300.446 272.776,316.112 291.5,332.5C 291.5,348.833 291.5,365.167 291.5,381.5C 286.167,377.167 280.833,372.833 275.5,368.5C 275.667,354.829 275.5,341.163 275,327.5C 260.965,313.632 247.131,299.632 233.5,285.5 Z"/></g>
<g><path style="opacity:0.909" fill="#4b58e8" d="M 364.5,289.5 C 369.152,292.821 373.485,296.487 377.5,300.5C 375.167,303.5 372.5,306.167 369.5,308.5C 364.848,305.179 360.515,301.513 356.5,297.5C 358.833,294.5 361.5,291.833 364.5,289.5 Z"/></g>
<g><path style="opacity:0.892" fill="#4c56e8" d="M 356.5,297.5 C 360.515,301.513 364.848,305.179 369.5,308.5C 369.167,309.5 368.5,310.167 367.5,310.5C 363.485,306.487 359.152,302.821 354.5,299.5C 354.833,298.5 355.5,297.833 356.5,297.5 Z"/></g>
<g><path style="opacity:0.959" fill="#4e54e5" d="M 354.5,299.5 C 359.152,302.821 363.485,306.487 367.5,310.5C 362.536,315.965 357.37,321.298 352,326.5C 351.5,339.496 351.333,352.496 351.5,365.5C 345.536,361.853 340.203,357.52 335.5,352.5C 335.599,341.108 335.433,329.775 335,318.5C 341.369,311.964 347.869,305.631 354.5,299.5 Z"/></g>
<g><path style="opacity:1" fill="#5b3fda" d="M 47.5,307.5 C 53.1667,307.5 58.8333,307.5 64.5,307.5C 70.5,312.833 76.5,318.167 82.5,323.5C 76.8333,323.5 71.1667,323.5 65.5,323.5C 59.5,318.167 53.5,312.833 47.5,307.5 Z"/></g>
<g><path style="opacity:1" fill="#5942db" d="M 64.5,307.5 C 81.8333,307.5 99.1667,307.5 116.5,307.5C 122.5,312.833 128.5,318.167 134.5,323.5C 117.167,323.5 99.8333,323.5 82.5,323.5C 76.5,318.167 70.5,312.833 64.5,307.5 Z"/></g>
<g><path style="opacity:1" fill="#5845dd" d="M 116.5,307.5 C 124.5,307.5 132.5,307.5 140.5,307.5C 146.5,312.833 152.5,318.167 158.5,323.5C 150.5,323.5 142.5,323.5 134.5,323.5C 128.5,318.167 122.5,312.833 116.5,307.5 Z"/></g>
<g><path style="opacity:0.973" fill="#5549df" d="M 140.5,307.5 C 156.833,307.5 173.167,307.5 189.5,307.5C 212.869,327.537 236.536,347.204 260.5,366.5C 261.911,368.914 263.911,370.581 266.5,371.5C 269.5,374.167 272.5,376.833 275.5,379.5C 280.248,384.584 285.581,388.917 291.5,392.5C 291.5,406.5 291.5,420.5 291.5,434.5C 285.833,429.833 280.167,425.167 274.5,420.5C 275.621,414.582 275.788,408.582 275,402.5C 246.833,376.333 218.667,350.167 190.5,324C 179.839,323.5 169.172,323.333 158.5,323.5C 152.5,318.167 146.5,312.833 140.5,307.5 Z"/></g>
<g><path style="opacity:0.829" fill="#554be0" d="M 189.5,307.5 C 192.518,307.335 195.518,307.502 198.5,308C 199.878,309.713 201.545,311.047 203.5,312C 222.575,330.183 241.575,348.349 260.5,366.5C 236.536,347.204 212.869,327.537 189.5,307.5 Z"/></g>
<g><path style="opacity:0.972" fill="#475bea" d="M 466.5,308.5 C 472.167,313.833 477.833,319.167 483.5,324.5C 467.83,324.333 452.163,324.5 436.5,325C 432.26,329.745 427.593,333.912 422.5,337.5C 417.848,334.179 413.515,330.513 409.5,326.5C 415.663,320.505 421.996,314.671 428.5,309C 441.162,308.5 453.829,308.333 466.5,308.5 Z"/></g>
<g><path style="opacity:1" fill="#455eec" d="M 466.5,308.5 C 473.5,308.5 480.5,308.5 487.5,308.5C 493.797,313.462 499.797,318.795 505.5,324.5C 498.167,324.5 490.833,324.5 483.5,324.5C 477.833,319.167 472.167,313.833 466.5,308.5 Z"/></g>
<g><path style="opacity:1" fill="#435fed" d="M 487.5,308.5 C 495.833,308.5 504.167,308.5 512.5,308.5C 518.917,313.373 524.917,318.707 530.5,324.5C 522.167,324.5 513.833,324.5 505.5,324.5C 499.797,318.795 493.797,313.462 487.5,308.5 Z"/></g>
<g><path style="opacity:1" fill="#4061ee" d="M 512.5,308.5 C 533.167,308.5 553.833,308.5 574.5,308.5C 580.203,314.205 586.203,319.538 592.5,324.5C 571.833,324.5 551.167,324.5 530.5,324.5C 524.917,318.707 518.917,313.373 512.5,308.5 Z"/></g>
<g><path style="opacity:1" fill="#3f63f0" d="M 574.5,308.5 C 577.167,308.5 579.833,308.5 582.5,308.5C 583.072,309.973 583.905,311.307 585,312.5C 585.333,312.167 585.667,311.833 586,311.5C 588.043,313.208 589.71,315.208 591,317.5C 591.333,317.167 591.667,316.833 592,316.5C 594.732,320.03 597.565,322.696 600.5,324.5C 597.833,324.5 595.167,324.5 592.5,324.5C 586.203,319.538 580.203,314.205 574.5,308.5 Z"/></g>
<g><path style="opacity:0.956" fill="#5e39d7" d="M 8.5,315.5 C 13.8333,319.5 19.1667,323.5 24.5,327.5C 24.7599,333.172 25.0932,338.839 25.5,344.5C 19.8333,339.833 14.1667,335.167 8.5,330.5C 8.5,325.5 8.5,320.5 8.5,315.5 Z"/></g>
<g><path style="opacity:0.908" fill="#4b58e8" d="M 409.5,326.5 C 413.515,330.513 417.848,334.179 422.5,337.5C 419.833,340.833 416.833,343.833 413.5,346.5C 409.485,342.487 405.152,338.821 400.5,335.5C 403.167,332.167 406.167,329.167 409.5,326.5 Z"/></g>
<g><path style="opacity:0.956" fill="#3e64f0" d="M 617.5,338.5 C 617.5,340.5 617.5,342.5 617.5,344.5C 612.5,340.5 607.5,336.5 602.5,332.5C 602.5,330.833 602.5,329.167 602.5,327.5C 605.422,327.518 607.588,329.184 609,332.5C 609.333,332.167 609.667,331.833 610,331.5C 612.374,333.539 614.374,335.872 616,338.5C 616.69,337.262 617.19,337.262 617.5,338.5 Z"/></g>
<g><path style="opacity:0.929" fill="#5f35d5" d="M 8.5,330.5 C 14.1667,335.167 19.8333,339.833 25.5,344.5C 28.4705,368.049 33.8039,391.049 41.5,413.5C 33.857,408.185 26.5237,402.518 19.5,396.5C 13.2447,374.968 9.57803,352.968 8.5,330.5 Z"/></g>
<g><path style="opacity:0.933" fill="#4061ee" d="M 602.5,332.5 C 607.5,336.5 612.5,340.5 617.5,344.5C 615.984,359.409 613.318,374.076 609.5,388.5C 604.833,385.167 600.167,381.833 595.5,378.5C 598.915,363.341 601.249,348.008 602.5,332.5 Z"/></g>
<g><path style="opacity:0.954" fill="#4c56e8" d="M 400.5,335.5 C 405.152,338.821 409.485,342.487 413.5,346.5C 412.833,346.833 412.167,347.167 411.5,347.5C 407.5,343.833 403.5,340.167 399.5,336.5C 399.5,335.833 399.833,335.5 400.5,335.5 Z"/></g>
<g><path style="opacity:0.926" fill="#4e54e5" d="M 399.5,336.5 C 403.5,340.167 407.5,343.833 411.5,347.5C 399.162,359.838 386.495,371.838 373.5,383.5C 368.848,380.179 364.515,376.513 360.5,372.5C 372.889,359.811 385.889,347.811 399.5,336.5 Z"/></g>
<g><path style="opacity:0.968" fill="#5050e3" d="M 335.5,352.5 C 340.203,357.52 345.536,361.853 351.5,365.5C 351.334,370.511 351.501,375.511 352,380.5C 354.703,377.629 357.536,374.962 360.5,372.5C 364.515,376.513 368.848,380.179 373.5,383.5C 369.859,386.805 366.192,390.138 362.5,393.5C 353.823,385.157 344.823,377.157 335.5,369.5C 335.5,363.833 335.5,358.167 335.5,352.5 Z"/></g>
<g><path style="opacity:0.367" fill="#554be0" d="M 260.5,366.5 C 263.089,367.419 265.089,369.086 266.5,371.5C 263.911,370.581 261.911,368.914 260.5,366.5 Z"/></g>
<g><path style="opacity:1" fill="#544be0" d="M 275.5,368.5 C 280.833,372.833 286.167,377.167 291.5,381.5C 291.5,385.167 291.5,388.833 291.5,392.5C 285.581,388.917 280.248,384.584 275.5,379.5C 275.5,375.833 275.5,372.167 275.5,368.5 Z"/></g>
<g><path style="opacity:0.97" fill="#534de1" d="M 335.5,369.5 C 344.823,377.157 353.823,385.157 362.5,393.5C 359.501,397.332 356.001,400.665 352,403.5C 351.333,409.5 351.333,415.5 352,421.5C 370.219,438.02 388.719,454.187 407.5,470C 423.497,470.5 439.497,470.667 455.5,470.5C 461.917,475.373 467.917,480.707 473.5,486.5C 458.163,486.333 442.83,486.5 427.5,487C 432.5,491.333 437.5,495.667 442.5,500C 458.83,500.5 475.163,500.667 491.5,500.5C 498.157,505.825 504.49,511.491 510.5,517.5C 491.167,517.5 471.833,517.5 452.5,517.5C 414.091,484.087 375.091,451.421 335.5,419.5C 335.5,402.833 335.5,386.167 335.5,369.5 Z"/></g>
<g><path style="opacity:0.93" fill="#435fed" d="M 595.5,378.5 C 600.167,381.833 604.833,385.167 609.5,388.5C 608.233,394.63 606.567,400.63 604.5,406.5C 599.848,403.179 595.515,399.513 591.5,395.5C 592.677,389.793 594.01,384.126 595.5,378.5 Z"/></g>
<g><path style="opacity:0.917" fill="#455eec" d="M 591.5,395.5 C 595.515,399.513 599.848,403.179 604.5,406.5C 603.204,411.393 601.538,416.06 599.5,420.5C 595.167,417.167 590.833,413.833 586.5,410.5C 587.595,405.216 589.261,400.216 591.5,395.5 Z"/></g>
<g><path style="opacity:0.942" fill="#6131d4" d="M 19.5,396.5 C 26.5237,402.518 33.857,408.185 41.5,413.5C 43.0198,415.89 44.0198,418.557 44.5,421.5C 37.0176,414.928 29.3509,408.595 21.5,402.5C 20.5418,400.698 19.8751,398.698 19.5,396.5 Z"/></g>
<g><path style="opacity:0.96" fill="#612ed3" d="M 21.5,402.5 C 29.3509,408.595 37.0176,414.928 44.5,421.5C 51.5018,437.835 59.8351,453.502 69.5,468.5C 80.4798,469.499 91.4798,469.832 102.5,469.5C 108.203,475.205 114.203,480.538 120.5,485.5C 107.496,485.333 94.4957,485.5 81.5,486C 84.4504,490.618 87.7838,494.952 91.5,499C 107.163,499.5 122.83,499.667 138.5,499.5C 144.535,505.537 150.869,511.204 157.5,516.5C 141.163,516.333 124.83,516.5 108.5,517C 112.833,521.333 117.167,525.667 121.5,530C 139.497,530.5 157.497,530.667 175.5,530.5C 180.844,535.843 186.511,540.843 192.5,545.5C 192.168,555.855 192.501,566.188 193.5,576.5C 197.048,578.441 200.714,580.107 204.5,581.5C 205.498,573.193 205.831,564.86 205.5,556.5C 210.833,560.833 216.167,565.167 221.5,569.5C 221.334,575.509 221.501,581.509 222,587.5C 227.003,589.668 232.17,591.334 237.5,592.5C 237.5,589.5 237.5,586.5 237.5,583.5C 242.833,587.833 248.167,592.167 253.5,596.5C 254.492,596.328 255.158,596.662 255.5,597.5C 262.311,604.067 269.311,610.4 276.5,616.5C 246.057,613.309 217.057,605.309 189.5,592.5C 147.243,556.368 104.576,520.701 61.5,485.5C 43.6773,460.183 30.3439,432.516 21.5,402.5 Z M 142.5,547.5 C 153.654,546.505 164.988,546.172 176.5,546.5C 176.83,553.532 176.497,560.532 175.5,567.5C 164.278,561.062 153.278,554.395 142.5,547.5 Z"/></g>
<g><path style="opacity:0.93" fill="#485bea" d="M 586.5,410.5 C 590.833,413.833 595.167,417.167 599.5,420.5C 593.514,436.804 586.181,452.471 577.5,467.5C 573.317,463.916 568.984,460.582 564.5,457.5C 573.001,442.306 580.334,426.64 586.5,410.5 Z"/></g>
<g><path style="opacity:0.997" fill="#544be0" d="M 335.5,419.5 C 375.091,451.421 414.091,484.087 452.5,517.5C 450.612,519.988 449.945,522.988 450.5,526.5C 429.814,509.477 409.147,492.477 388.5,475.5C 375.874,465.543 363.541,455.21 351.5,444.5C 346.488,439.49 341.155,434.823 335.5,430.5C 335.5,426.833 335.5,423.167 335.5,419.5 Z"/></g>
<g><path style="opacity:0.978" fill="#5845dd" d="M 274.5,420.5 C 280.167,425.167 285.833,429.833 291.5,434.5C 291.5,441.167 291.5,447.833 291.5,454.5C 281.847,446.845 272.514,438.845 263.5,430.5C 267.141,427.195 270.808,423.862 274.5,420.5 Z"/></g>
<g><path style="opacity:0.946" fill="#5942db" d="M 263.5,430.5 C 272.514,438.845 281.847,446.845 291.5,454.5C 291.449,461.56 291.616,468.56 292,475.5C 287.562,479.625 283.062,483.625 278.5,487.5C 274.485,483.487 270.152,479.821 265.5,476.5C 268.688,473.632 271.855,470.632 275,467.5C 275.667,459.167 275.667,450.833 275,442.5C 267.255,450.084 259.089,457.084 250.5,463.5C 245.848,460.179 241.515,456.513 237.5,452.5C 245.848,444.821 254.515,437.487 263.5,430.5 Z"/></g>
<g><path style="opacity:0.973" fill="#5647de" d="M 335.5,430.5 C 341.155,434.823 346.488,439.49 351.5,444.5C 351.334,452.174 351.5,459.841 352,467.5C 364.333,478.5 376.667,489.5 389,500.5C 388.674,505.44 388.508,510.44 388.5,515.5C 370.833,500.833 353.167,486.167 335.5,471.5C 335.5,457.833 335.5,444.167 335.5,430.5 Z"/></g>
<g><path style="opacity:0.925" fill="#5b3fda" d="M 237.5,452.5 C 241.515,456.513 245.848,460.179 250.5,463.5C 248.249,466.295 245.582,468.628 242.5,470.5C 237.601,467.544 233.268,463.877 229.5,459.5C 232.141,457.196 234.808,454.862 237.5,452.5 Z"/></g>
<g><path style="opacity:0.927" fill="#4b58e8" d="M 564.5,457.5 C 568.984,460.582 573.317,463.916 577.5,467.5C 575.5,470.833 573.5,474.167 571.5,477.5C 567.167,474.167 562.833,470.833 558.5,467.5C 560.5,464.167 562.5,460.833 564.5,457.5 Z"/></g>
<g><path style="opacity:0.953" fill="#5c3cd8" d="M 229.5,459.5 C 233.268,463.877 237.601,467.544 242.5,470.5C 234.541,477.49 226.541,484.49 218.5,491.5C 218.586,490.504 218.252,489.671 217.5,489C 209.626,482.287 201.626,475.787 193.5,469.5C 201.84,469.666 210.173,469.5 218.5,469C 222.198,465.826 225.865,462.659 229.5,459.5 Z"/></g>
<g><path style="opacity:0.903" fill="#4c56e8" d="M 558.5,467.5 C 562.833,470.833 567.167,474.167 571.5,477.5C 571.167,478.5 570.5,479.167 569.5,479.5C 565.817,475.82 561.817,472.486 557.5,469.5C 557.328,468.508 557.662,467.842 558.5,467.5 Z"/></g>
<g><path style="opacity:1" fill="#6132d4" d="M 102.5,469.5 C 104.5,469.5 106.5,469.5 108.5,469.5C 113.51,475.51 119.177,480.843 125.5,485.5C 123.833,485.5 122.167,485.5 120.5,485.5C 114.203,480.538 108.203,475.205 102.5,469.5 Z"/></g>
<g><path style="opacity:1" fill="#5f35d5" d="M 108.5,469.5 C 130.833,469.5 153.167,469.5 175.5,469.5C 181.203,475.205 187.203,480.538 193.5,485.5C 170.833,485.5 148.167,485.5 125.5,485.5C 119.177,480.843 113.51,475.51 108.5,469.5 Z"/></g>
<g><path style="opacity:0.977" fill="#5e39d7" d="M 175.5,469.5 C 181.5,469.5 187.5,469.5 193.5,469.5C 201.626,475.787 209.626,482.287 217.5,489C 218.252,489.671 218.586,490.504 218.5,491.5C 215.526,494.138 212.526,496.805 209.5,499.5C 205.485,495.487 201.152,491.821 196.5,488.5C 196.953,487.542 197.619,486.708 198.5,486C 196.866,485.506 195.199,485.34 193.5,485.5C 187.203,480.538 181.203,475.205 175.5,469.5 Z"/></g>
<g><path style="opacity:0.971" fill="#4e54e5" d="M 557.5,469.5 C 561.817,472.486 565.817,475.82 569.5,479.5C 560.427,494.961 549.427,508.961 536.5,521.5C 528.541,514.51 520.541,507.51 512.5,500.5C 519.841,500.666 527.174,500.5 534.5,500C 538.023,495.978 541.357,491.811 544.5,487.5C 527.847,486.501 511.18,486.167 494.5,486.5C 488.219,481.852 482.552,476.519 477.5,470.5C 504.241,470.824 530.908,470.491 557.5,469.5 Z"/></g>
<g><path style="opacity:1" fill="#5050e3" d="M 455.5,470.5 C 462.833,470.5 470.167,470.5 477.5,470.5C 482.552,476.519 488.219,481.852 494.5,486.5C 487.5,486.5 480.5,486.5 473.5,486.5C 467.917,480.707 461.917,475.373 455.5,470.5 Z"/></g>
<g><path style="opacity:0.935" fill="#5845dd" d="M 335.5,471.5 C 353.167,486.167 370.833,500.833 388.5,515.5C 388.5,522.167 388.5,528.833 388.5,535.5C 383.167,531.167 377.833,526.833 372.5,522.5C 372.666,517.821 372.499,513.155 372,508.5C 359.667,497.5 347.333,486.5 335,475.5C 334.421,474.072 334.588,472.738 335.5,471.5 Z"/></g>
<g><path style="opacity:0.952" fill="#5548df" d="M 388.5,475.5 C 409.147,492.477 429.814,509.477 450.5,526.5C 450.5,527.833 450.5,529.167 450.5,530.5C 452.167,530.5 453.833,530.5 455.5,530.5C 461.797,535.462 467.797,540.795 473.5,546.5C 465.833,546.5 458.167,546.5 450.5,546.5C 450.5,553.5 450.5,560.5 450.5,567.5C 445.167,563.167 439.833,558.833 434.5,554.5C 434.667,541.496 434.5,528.496 434,515.5C 418.64,502.301 403.473,488.968 388.5,475.5 Z"/></g>
<g><path style="opacity:0.926" fill="#5b3fda" d="M 265.5,476.5 C 270.152,479.821 274.485,483.487 278.5,487.5C 275.859,489.804 273.192,492.138 270.5,494.5C 265.848,491.179 261.515,487.513 257.5,483.5C 260.126,481.177 262.793,478.843 265.5,476.5 Z"/></g>
<g><path style="opacity:0.942" fill="#5c3cd8" d="M 257.5,483.5 C 261.515,487.513 265.848,491.179 270.5,494.5C 265.195,499.634 259.695,504.634 254,509.5C 253.502,512.817 253.335,516.15 253.5,519.5C 249.865,516.341 246.198,513.174 242.5,510C 240.922,508.906 239.255,508.072 237.5,507.5C 237.337,505.143 237.503,502.81 238,500.5C 244.372,494.624 250.872,488.958 257.5,483.5 Z"/></g>
<g><path style="opacity:0.924" fill="#632ad2" d="M 61.5,485.5 C 104.576,520.701 147.243,556.368 189.5,592.5C 136.469,569.127 93.8022,533.461 61.5,485.5 Z"/></g>
<g><path style="opacity:0.969" fill="#5f34d5" d="M 196.5,488.5 C 201.152,491.821 205.485,495.487 209.5,499.5C 203.873,503.956 198.373,508.623 193,513.5C 192.5,522.494 192.334,531.494 192.5,540.5C 186.896,536.569 181.562,532.235 176.5,527.5C 176.5,523.833 176.5,520.167 176.5,516.5C 171.833,516.5 167.167,516.5 162.5,516.5C 155.946,511.032 149.612,505.365 143.5,499.5C 156.837,499.667 170.171,499.5 183.5,499C 187.708,495.287 192.041,491.787 196.5,488.5 Z"/></g>
<g><path style="opacity:0.958" fill="#6132d4" d="M 138.5,499.5 C 140.167,499.5 141.833,499.5 143.5,499.5C 149.612,505.365 155.946,511.032 162.5,516.5C 160.833,516.5 159.167,516.5 157.5,516.5C 150.869,511.204 144.535,505.537 138.5,499.5 Z"/></g>
<g><path style="opacity:0.954" fill="#5050e3" d="M 491.5,500.5 C 498.5,500.5 505.5,500.5 512.5,500.5C 520.541,507.51 528.541,514.51 536.5,521.5C 534.57,525.1 531.903,528.1 528.5,530.5C 524.167,527.167 519.833,523.833 515.5,520.5C 515.953,519.542 516.619,518.708 517.5,518C 515.19,517.503 512.857,517.337 510.5,517.5C 504.49,511.491 498.157,505.825 491.5,500.5 Z"/></g>
<g><path style="opacity:1" fill="#5e39d7" d="M 237.5,507.5 C 239.255,508.072 240.922,508.906 242.5,510C 246.198,513.174 249.865,516.341 253.5,519.5C 253.5,524.833 253.5,530.167 253.5,535.5C 248.167,531.167 242.833,526.833 237.5,522.5C 237.5,517.5 237.5,512.5 237.5,507.5 Z"/></g>
<g><path style="opacity:1" fill="#5f34d5" d="M 221.5,565.5 C 216.777,560.446 211.443,556.113 205.5,552.5C 205.5,541.5 205.5,530.5 205.5,519.5C 210.833,519.5 216.167,519.5 221.5,519.5C 221.5,534.833 221.5,550.167 221.5,565.5 Z"/></g>
<g><path style="opacity:1" fill="#5647de" d="M 420.5,542.5 C 415.167,538.167 409.833,533.833 404.5,529.5C 404.5,526.167 404.5,522.833 404.5,519.5C 409.833,519.5 415.167,519.5 420.5,519.5C 420.5,527.167 420.5,534.833 420.5,542.5 Z"/></g>
<g><path style="opacity:0.946" fill="#534de1" d="M 515.5,520.5 C 519.833,523.833 524.167,527.167 528.5,530.5C 519.743,539.926 510.077,548.259 499.5,555.5C 489.091,547.633 479.091,539.299 469.5,530.5C 481.505,530.667 493.505,530.5 505.5,530C 508.703,526.629 512.036,523.462 515.5,520.5 Z"/></g>
<g><path style="opacity:1" fill="#5f35d5" d="M 237.5,522.5 C 242.833,526.833 248.167,531.167 253.5,535.5C 253.5,554.167 253.5,572.833 253.5,591.5C 247.557,587.887 242.223,583.554 237.5,578.5C 237.5,559.833 237.5,541.167 237.5,522.5 Z"/></g>
<g><path style="opacity:1" fill="#5942db" d="M 372.5,522.5 C 377.833,526.833 383.167,531.167 388.5,535.5C 388.5,549.833 388.5,564.167 388.5,578.5C 382.902,574.909 377.569,570.909 372.5,566.5C 372.5,551.833 372.5,537.167 372.5,522.5 Z"/></g>
<g><path style="opacity:0.999" fill="#6132d4" d="M 176.5,527.5 C 181.562,532.235 186.896,536.569 192.5,540.5C 192.5,542.167 192.5,543.833 192.5,545.5C 186.511,540.843 180.844,535.843 175.5,530.5C 176.404,529.791 176.737,528.791 176.5,527.5 Z"/></g>
<g><path style="opacity:1" fill="#5845dd" d="M 404.5,529.5 C 409.833,533.833 415.167,538.167 420.5,542.5C 420.5,549.167 420.5,555.833 420.5,562.5C 415.167,558.167 409.833,553.833 404.5,549.5C 404.5,542.833 404.5,536.167 404.5,529.5 Z"/></g>
<g><path style="opacity:0.957" fill="#544be0" d="M 455.5,530.5 C 460.167,530.5 464.833,530.5 469.5,530.5C 479.091,539.299 489.091,547.633 499.5,555.5C 497.14,557.853 494.473,559.853 491.5,561.5C 487.5,557.833 483.5,554.167 479.5,550.5C 480.987,549.196 482.654,548.03 484.5,547C 480.848,546.501 477.182,546.335 473.5,546.5C 467.797,540.795 461.797,535.462 455.5,530.5 Z"/></g>
<g><path style="opacity:1" fill="#5d3ad8" d="M 293.5,553.5 C 288.777,548.446 283.443,544.113 277.5,540.5C 277.5,538.833 277.5,537.167 277.5,535.5C 282.833,535.5 288.167,535.5 293.5,535.5C 293.5,541.5 293.5,547.5 293.5,553.5 Z"/></g>
<g><path style="opacity:1" fill="#5b3fda" d="M 337.5,536.5 C 341.183,540.18 345.183,543.514 349.5,546.5C 349.5,551.167 349.5,555.833 349.5,560.5C 344.167,556.167 338.833,551.833 333.5,547.5C 333.5,543.833 333.5,540.167 333.5,536.5C 334.833,536.5 336.167,536.5 337.5,536.5 Z"/></g>
<g><path style="opacity:1" fill="#5a40db" d="M 337.5,536.5 C 341.5,536.5 345.5,536.5 349.5,536.5C 349.5,539.833 349.5,543.167 349.5,546.5C 345.183,543.514 341.183,540.18 337.5,536.5 Z"/></g>
<g><path style="opacity:1" fill="#5e39d7" d="M 277.5,540.5 C 283.443,544.113 288.777,548.446 293.5,553.5C 293.5,558.5 293.5,563.5 293.5,568.5C 288.167,564.5 282.833,560.5 277.5,556.5C 277.5,551.167 277.5,545.833 277.5,540.5 Z"/></g>
<g><path style="opacity:1" fill="#5c3cd8" d="M 333.5,547.5 C 338.833,551.833 344.167,556.167 349.5,560.5C 349.5,573.833 349.5,587.167 349.5,600.5C 344.368,595.883 339.035,591.549 333.5,587.5C 333.5,574.167 333.5,560.833 333.5,547.5 Z"/></g>
<g><path style="opacity:0.97" fill="#5942db" d="M 404.5,549.5 C 409.833,553.833 415.167,558.167 420.5,562.5C 420.334,569.175 420.5,575.842 421,582.5C 425.212,580.644 429.379,578.644 433.5,576.5C 434.298,576.043 434.631,575.376 434.5,574.5C 439.5,578.5 444.5,582.5 449.5,586.5C 438.471,592.844 426.804,597.844 414.5,601.5C 410.167,597.5 405.833,593.5 401.5,589.5C 402.209,588.596 403.209,588.263 404.5,588.5C 404.5,575.5 404.5,562.5 404.5,549.5 Z"/></g>
<g><path style="opacity:0.922" fill="#5648de" d="M 479.5,550.5 C 483.5,554.167 487.5,557.833 491.5,561.5C 482.883,568.484 473.549,574.484 463.5,579.5C 459.167,575.5 454.833,571.5 450.5,567.5C 460.632,562.602 470.299,556.935 479.5,550.5 Z"/></g>
<g><path style="opacity:1" fill="#6132d4" d="M 205.5,552.5 C 211.443,556.113 216.777,560.446 221.5,565.5C 221.5,566.833 221.5,568.167 221.5,569.5C 216.167,565.167 210.833,560.833 205.5,556.5C 205.5,555.167 205.5,553.833 205.5,552.5 Z"/></g>
<g><path style="opacity:0.981" fill="#5845dd" d="M 434.5,554.5 C 439.833,558.833 445.167,563.167 450.5,567.5C 454.833,571.5 459.167,575.5 463.5,579.5C 459.151,582.341 454.484,584.674 449.5,586.5C 444.5,582.5 439.5,578.5 434.5,574.5C 434.5,567.833 434.5,561.167 434.5,554.5 Z"/></g>
<g><path style="opacity:0.964" fill="#5f35d5" d="M 277.5,556.5 C 282.833,560.5 288.167,564.5 293.5,568.5C 293.5,579.833 293.5,591.167 293.5,602.5C 306.833,602.5 320.167,602.5 333.5,602.5C 339.129,606.794 344.463,611.461 349.5,616.5C 327.253,618.765 304.919,619.098 282.5,617.5C 277.953,612.936 273.286,608.436 268.5,604C 265.393,603.294 263.393,601.461 262.5,598.5C 267.484,599.275 272.484,599.942 277.5,600.5C 277.5,585.833 277.5,571.167 277.5,556.5 Z"/></g>
<g><path style="opacity:0.965" fill="#5b3fda" d="M 372.5,566.5 C 377.569,570.909 382.902,574.909 388.5,578.5C 388.5,583.167 388.5,587.833 388.5,592.5C 392.88,591.707 397.214,590.707 401.5,589.5C 405.833,593.5 410.167,597.5 414.5,601.5C 410.784,603.405 406.784,604.739 402.5,605.5C 392.525,597.196 382.525,588.863 372.5,580.5C 372.5,575.833 372.5,571.167 372.5,566.5 Z"/></g>
<g><path style="opacity:1" fill="#6132d4" d="M 237.5,578.5 C 242.223,583.554 247.557,587.887 253.5,591.5C 253.5,593.167 253.5,594.833 253.5,596.5C 248.167,592.167 242.833,587.833 237.5,583.5C 237.5,581.833 237.5,580.167 237.5,578.5 Z"/></g>
<g><path style="opacity:0.954" fill="#5c3cd8" d="M 372.5,580.5 C 382.525,588.863 392.525,597.196 402.5,605.5C 390.835,609.416 378.835,612.416 366.5,614.5C 361.167,609.833 355.833,605.167 350.5,600.5C 357.526,599.551 364.526,598.385 371.5,597C 372.473,591.593 372.807,586.093 372.5,580.5 Z"/></g>
<g><path style="opacity:0.976" fill="#5e39d7" d="M 333.5,587.5 C 339.035,591.549 344.368,595.883 349.5,600.5C 349.833,600.5 350.167,600.5 350.5,600.5C 355.833,605.167 361.167,609.833 366.5,614.5C 360.884,615.54 355.217,616.207 349.5,616.5C 344.463,611.461 339.129,606.794 333.5,602.5C 333.5,597.5 333.5,592.5 333.5,587.5 Z"/></g>
<g><path style="opacity:0.935" fill="#6132d4" d="M 255.5,597.5 C 257.903,597.448 260.236,597.781 262.5,598.5C 263.393,601.461 265.393,603.294 268.5,604C 273.286,608.436 277.953,612.936 282.5,617.5C 280.435,617.483 278.435,617.15 276.5,616.5C 269.311,610.4 262.311,604.067 255.5,597.5 Z"/></g>
</svg>
